{
  "accessors": [
    {
      "bufferView": 2,
      "componentType": 5126,
      "count": 2407,
      "max": [
        9.670473098754883,
        4.60306978225708,
        27.58700942993164
      ],
      "min": [
        -9.614718437194824,
        -4.127266883850098,
        6.604292869567871
      ],
      "type": "VEC3"
    },
    {
      "bufferView": 2,
      "byteOffset": 28884,
      "componentType": 5126,
      "count": 2407,
      "type": "VEC3"
    },
    {
      "bufferView": 1,
      "componentType": 5126,
      "count": 2407,
      "type": "VEC2"
    },
    {
      "bufferView": 1,
      "byteOffset": 19256,
      "componentType": 5126,
      "count": 2407,
      "type": "VEC2"
    },
    {
      "bufferView": 1,
      "byteOffset": 38512,
      "componentType": 5126,
      "count": 2407,
      "type": "VEC2"
    },
    {
      "bufferView": 0,
      "componentType": 5125,
      "count": 10464,
      "type": "SCALAR"
    },
    {
      "bufferView": 2,
      "byteOffset": 57768,
      "componentType": 5126,
      "count": 182,
      "max": [
        -2.114109992980957,
        1.6544049978256226,
        27.562360763549805
      ],
      "min": [
        -2.6025009155273438,
        1.289700984954834,
        26.253231048583984
      ],
      "type": "VEC3"
    },
    {
      "bufferView": 2,
      "byteOffset": 59952,
      "componentType": 5126,
      "count": 182,
      "type": "VEC3"
    },
    {
      "bufferView": 1,
      "byteOffset": 57768,
      "componentType": 5126,
      "count": 182,
      "type": "VEC2"
    },
    {
      "bufferView": 1,
      "byteOffset": 59224,
      "componentType": 5126,
      "count": 182,
      "type": "VEC2"
    },
    {
      "bufferView": 1,
      "byteOffset": 60680,
      "componentType": 5126,
      "count": 182,
      "type": "VEC2"
    },
    {
      "bufferView": 0,
      "byteOffset": 41856,
      "componentType": 5125,
      "count": 864,
      "type": "SCALAR"
    },
    {
      "bufferView": 2,
      "byteOffset": 62136,
      "componentType": 5126,
      "count": 3660,
      "max": [
        9.698493003845215,
        9.889993667602539,
        26.630569458007813
      ],
      "min": [
        -9.581518173217773,
        -9.390018463134766,
        7.350557804107666
      ],
      "type": "VEC3"
    },
    {
      "bufferView": 2,
      "byteOffset": 106056,
      "componentType": 5126,
      "count": 3660,
      "type": "VEC3"
    },
    {
      "bufferView": 1,
      "byteOffset": 62136,
      "componentType": 5126,
      "count": 3660,
      "type": "VEC2"
    },
    {
      "bufferView": 1,
      "byteOffset": 91416,
      "componentType": 5126,
      "count": 3660,
      "type": "VEC2"
    },
    {
      "bufferView": 1,
      "byteOffset": 120696,
      "componentType": 5126,
      "count": 3660,
      "type": "VEC2"
    },
    {
      "bufferView": 0,
      "byteOffset": 45312,
      "componentType": 5125,
      "count": 15360,
      "type": "SCALAR"
    },
    {
      "bufferView": 2,
      "byteOffset": 149976,
      "componentType": 5126,
      "count": 3925,
      "max": [
        8.806774139404297,
        9.165107727050781,
        4.241786003112793
      ],
      "min": [
        -8.681841850280762,
        -8.323502540588379,
        3.2601370811462402
      ],
      "type": "VEC3"
    },
    {
      "bufferView": 2,
      "byteOffset": 197076,
      "componentType": 5126,
      "count": 3925,
      "type": "VEC3"
    },
    {
      "bufferView": 1,
      "byteOffset": 149976,
      "componentType": 5126,
      "count": 3925,
      "type": "VEC2"
    },
    {
      "bufferView": 1,
      "byteOffset": 181376,
      "componentType": 5126,
      "count": 3925,
      "type": "VEC2"
    },
    {
      "bufferView": 1,
      "byteOffset": 212776,
      "componentType": 5126,
      "count": 3925,
      "type": "VEC2"
    },
    {
      "bufferView": 0,
      "byteOffset": 106752,
      "componentType": 5125,
      "count": 18048,
      "type": "SCALAR"
    },
    {
      "bufferView": 2,
      "byteOffset": 244176,
      "componentType": 5126,
      "count": 2773,
      "max": [
        3.0909390449523926,
        1.711817979812622,
        27.228939056396484
      ],
      "min": [
        -3.0369069576263428,
        -1.2741080522537231,
        1.8754630088806152
      ],
      "type": "VEC3"
    },
    {
      "bufferView": 2,
      "byteOffset": 277452,
      "componentType": 5126,
      "count": 2773,
      "type": "VEC3"
    },
    {
      "bufferView": 1,
      "byteOffset": 244176,
      "componentType": 5126,
      "count": 2773,
      "type": "VEC2"
    },
    {
      "bufferView": 1,
      "byteOffset": 266360,
      "componentType": 5126,
      "count": 2773,
      "type": "VEC2"
    },
    {
      "bufferView": 1,
      "byteOffset": 288544,
      "componentType": 5126,
      "count": 2773,
      "type": "VEC2"
    },
    {
      "bufferView": 0,
      "byteOffset": 178944,
      "componentType": 5125,
      "count": 13620,
      "type": "SCALAR"
    },
    {
      "bufferView": 2,
      "byteOffset": 310728,
      "componentType": 5126,
      "count": 5801,
      "max": [
        15.489919662475586,
        15.7730073928833,
        17.821821212768555
      ],
      "min": [
        -15.304619789123535,
        -15.18934154510498,
        2.547818899154663
      ],
      "type": "VEC3"
    },
    {
      "bufferView": 2,
      "byteOffset": 380340,
      "componentType": 5126,
      "count": 5801,
      "type": "VEC3"
    },
    {
      "bufferView": 1,
      "byteOffset": 310728,
      "componentType": 5126,
      "count": 5801,
      "type": "VEC2"
    },
    {
      "bufferView": 1,
      "byteOffset": 357136,
      "componentType": 5126,
      "count": 5801,
      "type": "VEC2"
    },
    {
      "bufferView": 1,
      "byteOffset": 403544,
      "componentType": 5126,
      "count": 5801,
      "type": "VEC2"
    },
    {
      "bufferView": 0,
      "byteOffset": 233424,
      "componentType": 5125,
      "count": 23772,
      "type": "SCALAR"
    },
    {
      "bufferView": 2,
      "byteOffset": 449952,
      "componentType": 5126,
      "count": 199,
      "max": [
        15.470849990844727,
        15.764357566833496,
        17.793272018432617
      ],
      "min": [
        -15.295869827270508,
        -15.18094253540039,
        2.5646800994873047
      ],
      "type": "VEC3"
    },
    {
      "bufferView": 2,
      "byteOffset": 452340,
      "componentType": 5126,
      "count": 199,
      "type": "VEC3"
    },
    {
      "bufferView": 1,
      "byteOffset": 449952,
      "componentType": 5126,
      "count": 199,
      "type": "VEC2"
    },
    {
      "bufferView": 1,
      "byteOffset": 451544,
      "componentType": 5126,
      "count": 199,
      "type": "VEC2"
    },
    {
      "bufferView": 1,
      "byteOffset": 453136,
      "componentType": 5126,
      "count": 199,
      "type": "VEC2"
    },
    {
      "bufferView": 0,
      "byteOffset": 328512,
      "componentType": 5125,
      "count": 204,
      "type": "SCALAR"
    },
    {
      "bufferView": 2,
      "byteOffset": 454728,
      "componentType": 5126,
      "count": 8372,
      "max": [
        -2.7379000186920166,
        13.003100395202637,
        16.622920989990234
      ],
      "min": [
        -5.518787860870361,
        10.222220420837402,
        0.24372699856758118
      ],
      "type": "VEC3"
    },
    {
      "bufferView": 2,
      "byteOffset": 555192,
      "componentType": 5126,
      "count": 8372,
      "type": "VEC3"
    },
    {
      "bufferView": 1,
      "byteOffset": 454728,
      "componentType": 5126,
      "count": 8372,
      "type": "VEC2"
    },
    {
      "bufferView": 1,
      "byteOffset": 521704,
      "componentType": 5126,
      "count": 8372,
      "type": "VEC2"
    },
    {
      "bufferView": 1,
      "byteOffset": 588680,
      "componentType": 5126,
      "count": 8372,
      "type": "VEC2"
    },
    {
      "bufferView": 0,
      "byteOffset": 329328,
      "componentType": 5125,
      "count": 43524,
      "type": "SCALAR"
    },
    {
      "bufferView": 2,
      "byteOffset": 655656,
      "componentType": 5126,
      "count": 8477,
      "max": [
        12.638130187988281,
        5.989540100097656,
        16.626529693603516
      ],
      "min": [
        9.85723876953125,
        3.2086551189422607,
        0.24732999503612518
      ],
      "type": "VEC3"
    },
    {
      "bufferView": 2,
      "byteOffset": 757380,
      "componentType": 5126,
      "count": 8477,
      "type": "VEC3"
    },
    {
      "bufferView": 1,
      "byteOffset": 655656,
      "componentType": 5126,
      "count": 8477,
      "type": "VEC2"
    },
    {
      "bufferView": 1,
      "byteOffset": 723472,
      "componentType": 5126,
      "count": 8477,
      "type": "VEC2"
    },
    {
      "bufferView": 1,
      "byteOffset": 791288,
      "componentType": 5126,
      "count": 8477,
      "type": "VEC2"
    },
    {
      "bufferView": 0,
      "byteOffset": 503424,
      "componentType": 5125,
      "count": 43524,
      "type": "SCALAR"
    },
    {
      "bufferView": 2,
      "byteOffset": 859104,
      "componentType": 5126,
      "count": 8501,
      "max": [
        5.571698188781738,
        -9.385258674621582,
        16.583417892456055
      ],
      "min": [
        2.790811061859131,
        -12.166139602661133,
        0.20421400666236877
      ],
      "type": "VEC3"
    },
    {
      "bufferView": 2,
      "byteOffset": 961116,
      "componentType": 5126,
      "count": 8501,
      "type": "VEC3"
    },
    {
      "bufferView": 1,
      "byteOffset": 859104,
      "componentType": 5126,
      "count": 8501,
      "type": "VEC2"
    },
    {
      "bufferView": 1,
      "byteOffset": 927112,
      "componentType": 5126,
      "count": 8501,
      "type": "VEC2"
    },
    {
      "bufferView": 1,
      "byteOffset": 995120,
      "componentType": 5126,
      "count": 8501,
      "type": "VEC2"
    },
    {
      "bufferView": 0,
      "byteOffset": 677520,
      "componentType": 5125,
      "count": 43524,
      "type": "SCALAR"
    },
    {
      "bufferView": 2,
      "byteOffset": 1063128,
      "componentType": 5126,
      "count": 8551,
      "max": [
        -9.714164733886719,
        -2.5456080436706543,
        16.682390213012695
      ],
      "min": [
        -12.495050430297852,
        -5.326491832733154,
        0.3031890094280243
      ],
      "type": "VEC3"
    },
    {
      "bufferView": 2,
      "byteOffset": 1165740,
      "componentType": 5126,
      "count": 8551,
      "type": "VEC3"
    },
    {
      "bufferView": 1,
      "byteOffset": 1063128,
      "componentType": 5126,
      "count": 8551,
      "type": "VEC2"
    },
    {
      "bufferView": 1,
      "byteOffset": 1131536,
      "componentType": 5126,
      "count": 8551,
      "type": "VEC2"
    },
    {
      "bufferView": 1,
      "byteOffset": 1199944,
      "componentType": 5126,
      "count": 8551,
      "type": "VEC2"
    },
    {
      "bufferView": 0,
      "byteOffset": 851616,
      "componentType": 5125,
      "count": 43524,
      "type": "SCALAR"
    }
  ],
  "asset": {
    "generator": "fab-model-conversion",
    "version": "2.0"
  },
  "bufferViews": [
    {
      "buffer": 0,
      "byteLength": 1025712,
      "target": 34963
    },
    {
      "buffer": 0,
      "byteLength": 1268352,
      "byteOffset": 1025712,
      "byteStride": 8,
      "target": 34962
    },
    {
      "buffer": 0,
      "byteLength": 1268352,
      "byteOffset": 2294064,
      "byteStride": 12,
      "target": 34962
    }
  ],
  "buffers": [
    {
      "byteLength": 3562416,
      "uri": "scene.bin"
    }
  ],
  "images": [
    {
      "uri": "textures/ring_baseColor.jpeg"
    },
    {
      "uri": "textures/ring_metallicRoughness.png"
    },
    {
      "uri": "textures/small-el_baseColor.jpeg"
    },
    {
      "uri": "textures/small-el_metallicRoughness.png"
    },
    {
      "uri": "textures/sphere_baseColor.jpeg"
    },
    {
      "uri": "textures/sphere_metallicRoughness.png"
    },
    {
      "uri": "textures/under-table-mat_baseColor.jpeg"
    },
    {
      "uri": "textures/under-table-mat_metallicRoughness.png"
    },
    {
      "uri": "textures/None_baseColor.jpeg"
    },
    {
      "uri": "textures/None_metallicRoughness.png"
    },
    {
      "uri": "textures/Quads_baseColor.jpeg"
    },
    {
      "uri": "textures/Quads_metallicRoughness.png"
    },
    {
      "uri": "textures/Tris_baseColor.jpeg"
    },
    {
      "uri": "textures/Tris_metallicRoughness.png"
    },
    {
      "uri": "textures/material_baseColor.jpeg"
    },
    {
      "uri": "textures/material_metallicRoughness.png"
    }
  ],
  "materials": [
    {
      "doubleSided": true,
      "name": "ring",
      "pbrMetallicRoughness": {
        "baseColorTexture": {
          "index": 0
        },
        "metallicRoughnessTexture": {
          "index": 1
        }
      }
    },
    {
      "doubleSided": true,
      "name": "small-el",
      "pbrMetallicRoughness": {
        "baseColorTexture": {
          "index": 2
        },
        "metallicRoughnessTexture": {
          "index": 3
        }
      }
    },
    {
      "doubleSided": true,
      "name": "sphere",
      "pbrMetallicRoughness": {
        "baseColorTexture": {
          "index": 4
        },
        "metallicFactor": 0.0,
        "metallicRoughnessTexture": {
          "index": 5
        }
      }
    },
    {
      "doubleSided": true,
      "name": "under-table-mat",
      "pbrMetallicRoughness": {
        "baseColorTexture": {
          "index": 6
        },
        "metallicFactor": 0.0,
        "metallicRoughnessTexture": {
          "index": 7
        }
      }
    },
    {
      "doubleSided": true,
      "name": "None",
      "pbrMetallicRoughness": {
        "baseColorTexture": {
          "index": 8
        },
        "metallicRoughnessTexture": {
          "index": 9
        }
      }
    },
    {
      "doubleSided": true,
      "name": "Quads",
      "pbrMetallicRoughness": {
        "baseColorTexture": {
          "index": 10
        },
        "metallicFactor": 0.0,
        "metallicRoughnessTexture": {
          "index": 11
        }
      }
    },
    {
      "doubleSided": true,
      "name": "Tris",
      "pbrMetallicRoughness": {
        "baseColorTexture": {
          "index": 12
        },
        "metallicFactor": 0.0,
        "metallicRoughnessTexture": {
          "index": 13
        }
      }
    },
    {
      "doubleSided": true,
      "name": "material",
      "pbrMetallicRoughness": {
        "baseColorTexture": {
          "index": 14
        },
        "metallicFactor": 0.0,
        "metallicRoughnessTexture": {
          "index": 15
        }
      }
    }
  ],
  "meshes": [
    {
      "name": "Object_0",
      "primitives": [
        {
          "attributes": {
            "NORMAL": 1,
            "POSITION": 0,
            "TEXCOORD_0": 2,
            "TEXCOORD_1": 3,
            "TEXCOORD_2": 4
          },
          "indices": 5,
          "material": 0,
          "mode": 4
        }
      ]
    },
    {
      "name": "Object_1",
      "primitives": [
        {
          "attributes": {
            "NORMAL": 7,
            "POSITION": 6,
            "TEXCOORD_0": 8,
            "TEXCOORD_1": 9,
            "TEXCOORD_2": 10
          },
          "indices": 11,
          "material": 1,
          "mode": 4
        }
      ]
    },
    {
      "name": "Object_2",
      "primitives": [
        {
          "attributes": {
            "NORMAL": 13,
            "POSITION": 12,
            "TEXCOORD_0": 14,
            "TEXCOORD_1": 15,
            "TEXCOORD_2": 16
          },
          "indices": 17,
          "material": 2,
          "mode": 4
        }
      ]
    },
    {
      "name": "Object_3",
      "primitives": [
        {
          "attributes": {
            "NORMAL": 19,
            "POSITION": 18,
            "TEXCOORD_0": 20,
            "TEXCOORD_1": 21,
            "TEXCOORD_2": 22
          },
          "indices": 23,
          "material": 3,
          "mode": 4
        }
      ]
    },
    {
      "name": "Object_4",
      "primitives": [
        {
          "attributes": {
            "NORMAL": 25,
            "POSITION": 24,
            "TEXCOORD_0": 26,
            "TEXCOORD_1": 27,
            "TEXCOORD_2": 28
          },
          "indices": 29,
          "material": 4,
          "mode": 4
        }
      ]
    },
    {
      "name": "Object_5",
      "primitives": [
        {
          "attributes": {
            "NORMAL": 31,
            "POSITION": 30,
            "TEXCOORD_0": 32,
            "TEXCOORD_1": 33,
            "TEXCOORD_2": 34
          },
          "indices": 35,
          "material": 5,
          "mode": 4
        }
      ]
    },
    {
      "name": "Object_6",
      "primitives": [
        {
          "attributes": {
            "NORMAL": 37,
            "POSITION": 36,
            "TEXCOORD_0": 38,
            "TEXCOORD_1": 39,
            "TEXCOORD_2": 40
          },
          "indices": 41,
          "material": 6,
          "mode": 4
        }
      ]
    },
    {
      "name": "Object_7",
      "primitives": [
        {
          "attributes": {
            "NORMAL": 43,
            "POSITION": 42,
            "TEXCOORD_0": 44,
            "TEXCOORD_1": 45,
            "TEXCOORD_2": 46
          },
          "indices": 47,
          "material": 7,
          "mode": 4
        }
      ]
    },
    {
      "name": "Object_8",
      "primitives": [
        {
          "attributes": {
            "NORMAL": 49,
            "POSITION": 48,
            "TEXCOORD_0": 50,
            "TEXCOORD_1": 51,
            "TEXCOORD_2": 52
          },
          "indices": 53,
          "material": 7,
          "mode": 4
        }
      ]
    },
    {
      "name": "Object_9",
      "primitives": [
        {
          "attributes": {
            "NORMAL": 55,
            "POSITION": 54,
            "TEXCOORD_0": 56,
            "TEXCOORD_1": 57,
            "TEXCOORD_2": 58
          },
          "indices": 59,
          "material": 7,
          "mode": 4
        }
      ]
    },
    {
      "name": "Object_10",
      "primitives": [
        {
          "attributes": {
            "NORMAL": 61,
            "POSITION": 60,
            "TEXCOORD_0": 62,
            "TEXCOORD_1": 63,
            "TEXCOORD_2": 64
          },
          "indices": 65,
          "material": 7,
          "mode": 4
        }
      ]
    }
  ],
  "nodes": [
    {
      "children": [
        1
      ],
      "matrix": [
        1.0,
        0.0,
        0.0,
        0.0,
        0.0,
        2.220446049250313e-16,
        -1.0,
        0.0,
        0.0,
        1.0,
        2.220446049250313e-16,
        0.0,
        0.0,
        0.0,
        0.0,
        1.0
      ],
      "name": "Sketchfab_model"
    },
    {
      "children": [
        2
      ],
      "name": "root"
    },
    {
      "children": [
        3
      ],
      "matrix": [
        1.0,
        0.0,
        0.0,
        0.0,
        0.0,
        2.220446049250313e-16,
        1.0,
        0.0,
        0.0,
        -1.0,
        2.220446049250313e-16,
        0.0,
        0.0,
        0.0,
        0.0,
        1.0
      ],
      "name": "GLTF_SceneRootNode"
    },
    {
      "children": [
        4
      ],
      "matrix": [
        0.03067600168287754,
        0.0,
        0.0,
        0.0,
        0.0,
        6.811440674354139e-18,
        -0.03067600168287754,
        0.0,
        0.0,
        0.03067600168287754,
        6.811440674354139e-18,
        0.0,
        0.0,
        0.0,
        0.0,
        1.0
      ],
      "name": "Sketchfab_model_0"
    },
    {
      "children": [
        5,
        7,
        9,
        11,
        13,
        15,
        17,
        19,
        21,
        23,
        25
      ],
      "name": "4119_119_V_Globus_Ziemi_po_1744.obj.cleaner.materialmerger.gles_1"
    },
    {
      "children": [
        6
      ],
      "name": "Object_2_2"
    },
    {
      "mesh": 0,
      "name": "Object_6"
    },
    {
      "children": [
        8
      ],
      "name": "Object_3_3"
    },
    {
      "mesh": 1,
      "name": "Object_8"
    },
    {
      "children": [
        10
      ],
      "name": "Object_4_4"
    },
    {
      "mesh": 2,
      "name": "Object_10"
    },
    {
      "children": [
        12
      ],
      "name": "Object_5_5"
    },
    {
      "mesh": 3,
      "name": "Object_12"
    },
    {
      "children": [
        14
      ],
      "name": "Object_6_6"
    },
    {
      "mesh": 4,
      "name": "Object_14"
    },
    {
      "children": [
        16
      ],
      "name": "Object_7_7"
    },
    {
      "mesh": 5,
      "name": "Object_16"
    },
    {
      "children": [
        18
      ],
      "name": "Object_8_8"
    },
    {
      "mesh": 6,
      "name": "Object_18"
    },
    {
      "children": [
        20
      ],
      "name": "Object_9_9"
    },
    {
      "mesh": 7,
      "name": "Object_20"
    },
    {
      "children": [
        22
      ],
      "name": "Object_10_10"
    },
    {
      "mesh": 8,
      "name": "Object_22"
    },
    {
      "children": [
        24
      ],
      "name": "Object_11_11"
    },
    {
      "mesh": 9,
      "name": "Object_24"
    },
    {
      "children": [
        26
      ],
      "name": "Object_12_12"
    },
    {
      "mesh": 10,
      "name": "Object_26"
    }
  ],
  "samplers": [
    {
      "magFilter": 9729,
      "minFilter": 9987,
      "wrapS": 10497,
      "wrapT": 10497
    }
  ],
  "scene": 0,
  "scenes": [
    {
      "name": "Sketchfab_Scene",
      "nodes": [
        0
      ]
    }
  ],
  "textures": [
    {
      "sampler": 0,
      "source": 0
    },
    {
      "sampler": 0,
      "source": 1
    },
    {
      "sampler": 0,
      "source": 2
    },
    {
      "sampler": 0,
      "source": 3
    },
    {
      "sampler": 0,
      "source": 4
    },
    {
      "sampler": 0,
      "source": 5
    },
    {
      "sampler": 0,
      "source": 6
    },
    {
      "sampler": 0,
      "source": 7
    },
    {
      "sampler": 0,
      "source": 8
    },
    {
      "sampler": 0,
      "source": 9
    },
    {
      "sampler": 0,
      "source": 10
    },
    {
      "sampler": 0,
      "source": 11
    },
    {
      "sampler": 0,
      "source": 12
    },
    {
      "sampler": 0,
      "source": 13
    },
    {
      "sampler": 0,
      "source": 14
    },
    {
      "sampler": 0,
      "source": 15
    }
  ]
}
